<?xml version="1.0" standalone="no"?><!DOCTYPE svg PUBLIC "-//W3C//DTD SVG 1.1//EN" "http://www.w3.org/Graphics/SVG/1.1/DTD/svg11.dtd"><svg t="1579001625762" class="icon" viewBox="0 0 1024 1024" version="1.1" xmlns="http://www.w3.org/2000/svg" p-id="5208" xmlns:xlink="http://www.w3.org/1999/xlink" width="128" height="128"><defs><style type="text/css"></style></defs><path d="M740.693333 16.668444l266.638223 266.581334a56.888889 56.888889 0 0 1 16.668444 40.220444v377.059556a56.888889 56.888889 0 0 1-16.668444 40.220444l-266.581334 266.581334a56.888889 56.888889 0 0 1-40.220444 16.668444H323.470222a56.888889 56.888889 0 0 1-40.220444-16.668444L16.668444 740.750222A56.888889 56.888889 0 0 1 0 700.529778V323.470222a56.888889 56.888889 0 0 1 16.668444-40.220444L283.249778 16.668444A56.888889 56.888889 0 0 1 323.470222 0h377.059556a56.888889 56.888889 0 0 1 40.220444 16.668444z" p-id="5209" fill="#ff9593"></path></svg>