<?xml version="1.0" standalone="no"?><!DOCTYPE svg PUBLIC "-//W3C//DTD SVG 1.1//EN" "http://www.w3.org/Graphics/SVG/1.1/DTD/svg11.dtd"><svg t="1579001685913" class="icon" viewBox="0 0 1024 1024" version="1.1" xmlns="http://www.w3.org/2000/svg" p-id="5382" xmlns:xlink="http://www.w3.org/1999/xlink" width="128" height="128"><defs><style type="text/css"></style></defs><path d="M815.561613 248.328145L670.718333 393.222623a51.199462 51.199462 0 0 1-72.396039-72.39604l144.792079-144.843279-65.125716-65.125716c-14.028653-14.028653-12.39027-38.348397 3.583962-54.32263a44.953128 44.953128 0 0 1 22.476564-12.287871l204.644252-42.495553c42.393155-8.806308 79.359167 17.766213 82.533533 59.391376 0.563194 7.116725 0.102399 14.438248-1.433585 21.708572l-42.495554 204.644251c-4.403154 21.196577-24.78054 37.068411-45.567521 35.481228a32.972454 32.972454 0 0 1-20.99178-9.420701l-65.176915-65.125717zM248.322769 815.618188L313.499684 880.641505a32.972454 32.972454 0 0 1 9.420701 20.99178c1.587183 20.838181-14.28465 41.215567-35.481227 45.618721l-204.644251 42.495554c-7.270324 1.535984-14.591847 2.047978-21.708572 1.433585-41.625163-3.174367-68.197684-40.140379-59.391377-82.533534l42.495554-204.644251a44.953128 44.953128 0 0 1 12.287871-22.476564c15.974232-15.974232 40.293977-17.612615 54.27143-3.583962l65.176916 65.125716 144.843279-144.79208A51.199462 51.199462 0 1 1 393.166048 670.723709L248.373968 815.618188zM175.926729 248.328145L110.801013 313.50506a32.972454 32.972454 0 0 1-20.99178 9.420701c-20.838181 1.587183-41.266767-14.28465-45.618721-35.481227l-42.495554-204.644251a77.618385 77.618385 0 0 1-1.433585-21.708572C3.43574 19.466548 40.401752-7.157173 82.794907 1.700334l204.644251 42.495554a44.953128 44.953128 0 0 1 22.476564 12.287871c15.974232 15.974232 17.612615 40.293977 3.583962 54.27143L248.373968 175.983304l144.79208 144.843279a51.199462 51.199462 0 1 1-72.39604 72.39604L175.926729 248.379344z m567.187644 567.187644L598.322294 670.723709a51.199462 51.199462 0 0 1 72.396039-72.396039l144.84328 144.792079 65.125716-65.125716c14.028653-14.028653 38.348397-12.39027 54.322629 3.583962a44.953128 44.953128 0 0 1 12.287871 22.476564l42.495554 204.644252c8.806308 42.393155-17.766213 79.359167-59.391376 82.533533-7.116725 0.563194-14.438248 0.102399-21.708572-1.433585l-204.644252-42.495554c-21.196577-4.403154-37.11961-24.78054-35.481227-45.567521a32.972454 32.972454 0 0 1 9.420701-20.99178l65.125716-65.176915z" p-id="5383" fill="#b3b3b3"></path></svg>