<?xml version="1.0" standalone="no"?><!DOCTYPE svg PUBLIC "-//W3C//DTD SVG 1.1//EN" "http://www.w3.org/Graphics/SVG/1.1/DTD/svg11.dtd"><svg t="1579001608714" class="icon" viewBox="0 0 1024 1024" version="1.1" xmlns="http://www.w3.org/2000/svg" p-id="5038" xmlns:xlink="http://www.w3.org/1999/xlink" width="128" height="128"><defs><style type="text/css"></style></defs><path d="M204.79744 563.926001V972.801024a51.198976 51.198976 0 1 1-102.397952 0V51.219456A51.198976 51.198976 0 0 1 198.397568 26.439151 364.536709 364.536709 0 0 1 344.161053 0.122878a378.667627 378.667627 0 0 1 201.723965 53.605327c44.952701 24.01232 83.761525 44.696706 166.601468 44.696707a291.629367 291.629367 0 0 0 153.955321-38.092039 37.98964 37.98964 0 0 1 37.068059 1.279975c11.314974 6.963061 18.175636 19.455611 18.073238 32.869742v457.155657l-0.102398 0.102398a38.143237 38.143237 0 0 1-20.377192 33.893722 367.352653 367.352653 0 0 1-188.51463 46.386273A377.848443 377.848443 0 0 1 510.660123 578.568909c-44.952701-23.909922-83.812724-44.594308-166.49907-44.594308A300.025999 300.025999 0 0 0 204.79744 563.926001z" p-id="5039" fill="#69e0b9"></path></svg>